<svg width="51" height="20" viewBox="0 0 51 20" fill="none" xmlns="http://www.w3.org/2000/svg">
<path d="M7.66 19V1.06H0.94V4.09H4.51V19H7.66ZM26.7566 15.01V12.55C26.7566 11.32 26.2166 10.63 25.5566 9.97C26.2166 9.31 26.7566 8.65 26.7566 7.42V5.08C26.7566 4.45 26.5766 3.79 26.2166 3.25C25.9466 2.86 25.0166 1.9 24.5666 1.6C23.9966 1.18 23.2166 0.939998 22.4966 0.939998H19.0166C18.2666 0.939998 17.4866 1.18 16.9166 1.6C16.4966 1.9 15.5366 2.86 15.2666 3.25C14.9066 3.79 14.7266 4.45 14.7266 5.08V7.42C14.7266 8.65 15.2666 9.31 15.9566 9.97C15.2666 10.63 14.7266 11.32 14.7266 12.55V15.01C14.7266 15.64 14.9066 16.3 15.2666 16.84C15.5366 17.23 16.4966 18.19 16.9166 18.49C17.4866 18.91 18.2666 19.15 19.0166 19.15H19.3466H22.1666H22.4966C23.2166 19.15 23.9966 18.91 24.5666 18.49C25.0166 18.19 25.9466 17.23 26.2166 16.84C26.5766 16.3 26.7566 15.64 26.7566 15.01ZM23.5766 7.57C23.3366 8.02 22.7666 8.56 22.4966 8.56C22.5266 8.56 22.4366 8.56 19.0166 8.56C18.7166 8.56 18.1466 8.02 17.9066 7.57C17.9066 7.57 17.8766 7.48 17.8766 7.42V5.08C17.8766 4.99 17.9066 4.93 17.9066 4.93C18.1766 4.48 18.7466 3.94 19.0466 3.94H22.4666C22.7366 3.94 23.3066 4.48 23.5766 4.93C23.5766 4.93 23.6066 4.99 23.6066 5.08C23.6066 5.83 23.6066 7.33 23.6066 7.42C23.6066 7.54 23.5766 7.57 23.5766 7.57ZM23.5766 15.19C23.3366 15.64 22.7666 16.15 22.4966 16.15C22.5266 16.15 22.4066 16.15 18.9866 16.15C18.6866 16.15 18.1466 15.64 17.9066 15.19C17.9066 15.19 17.8766 15.1 17.8766 15.04V12.64C17.8766 12.55 17.9066 12.49 17.9066 12.49C18.1766 12.04 18.7166 11.5 19.0166 11.5H22.4366C22.7066 11.5 23.3066 12.04 23.5766 12.49C23.5766 12.49 23.6066 12.55 23.6066 12.64C23.6066 13.36 23.6066 14.95 23.6066 15.04C23.6066 15.16 23.5766 15.19 23.5766 15.19ZM34.1533 19V15.22H30.4633V19H34.1533ZM50.6413 14.74V5.35C50.6413 4.78 50.5213 4.18 50.1613 3.64C49.8013 3.13 48.6313 1.84 47.9713 1.48C47.4913 1.18 46.7713 0.939998 46.1413 0.939998H42.8113C42.1513 0.939998 41.4313 1.18 40.9513 1.48C40.3213 1.84 39.1213 3.13 38.7613 3.64C38.4013 4.18 38.2813 4.78 38.2813 5.35V14.74C38.2813 15.31 38.4013 15.91 38.7613 16.45C39.1213 16.96 40.3213 18.25 40.9513 18.61C41.4313 18.91 42.1513 19.15 42.8113 19.15H46.1413C46.7713 19.15 47.4913 18.91 47.9713 18.61C48.6313 18.25 49.8013 16.96 50.1613 16.45C50.5213 15.91 50.6413 15.31 50.6413 14.74ZM41.4313 5.41C41.4313 5.41 41.4313 5.32 41.4613 5.26C41.8213 4.72 42.4213 4.15 42.7813 3.97C42.8113 3.94 42.9313 3.94 42.9313 3.94H46.0213C46.0513 3.94 46.1113 3.94 46.1713 3.97C46.5013 4.15 47.1013 4.72 47.4613 5.26C47.4913 5.29 47.4913 5.41 47.4913 5.41V14.71C47.4913 14.71 47.4913 14.77 47.4613 14.83C47.1013 15.37 46.5013 15.94 46.1713 16.12C46.1113 16.15 46.0213 16.15 46.0213 16.15H42.9313C42.9013 16.15 42.8413 16.15 42.7813 16.12C42.4213 15.94 41.8213 15.37 41.4613 14.83C41.4313 14.8 41.4313 14.71 41.4313 14.71V5.41Z" fill="#00F0FF"/>
</svg>
