<svg width="404" height="77" viewBox="0 0 404 77" fill="none" xmlns="http://www.w3.org/2000/svg">
<path d="M2.20947 55.9083V1.75757H402.079V74.8066H330.321H280.402V68.9917H256.483V74.8066H35.4886L2.20947 55.9083Z" stroke="#FF00FF" stroke-width="3"/>
<path d="M97.1101 52V23.296H77.1901V52H82.2301V28.096H92.0701V52H97.1101ZM121.667 45.904V37.408C121.667 36.352 121.427 35.344 120.803 34.432C120.419 33.856 119.219 32.608 118.499 32.08C117.587 31.408 116.243 31.024 115.043 31.024H111.539C110.387 31.024 109.283 31.648 108.419 32.32L108.227 31.264H103.475L103.907 35.536V59.824H108.707V51.136C109.523 51.712 110.531 52.24 111.539 52.24H115.043C116.243 52.24 117.539 51.904 118.499 51.232C119.267 50.704 120.419 49.408 120.803 48.88C121.427 48.016 121.667 46.96 121.667 45.904ZM116.867 45.808C116.867 45.952 116.819 46.048 116.819 46.048C116.483 46.624 115.811 47.296 115.283 47.632C115.187 47.68 115.139 47.68 114.995 47.68H111.683C111.107 47.68 109.331 46.288 108.707 45.568V37.744C109.331 37.024 111.155 35.584 111.683 35.584H114.995C115.091 35.584 115.187 35.632 115.283 35.68C115.811 36.016 116.483 36.64 116.819 37.216C116.819 37.216 116.867 37.312 116.867 37.504V45.808ZM144.909 45.952V37.312C144.909 36.352 144.765 35.296 144.093 34.384C143.709 33.808 142.509 32.608 141.789 32.08C140.829 31.408 139.485 31.024 138.285 31.024H133.773C132.573 31.024 131.277 31.408 130.317 32.08C129.597 32.608 128.349 33.808 127.965 34.384C127.293 35.296 127.149 36.352 127.149 37.312V45.952C127.149 46.912 127.293 47.968 127.965 48.88C128.349 49.456 129.597 50.704 130.317 51.232C131.277 51.904 132.573 52.24 133.773 52.24H138.285C139.485 52.24 140.829 51.904 141.789 51.232C142.509 50.704 143.709 49.456 144.093 48.88C144.765 47.968 144.909 46.912 144.909 45.952ZM131.949 37.456C131.949 37.456 131.949 37.264 131.997 37.168C132.333 36.592 133.005 35.968 133.581 35.632C133.677 35.584 133.725 35.584 133.821 35.584H138.237C138.333 35.584 138.381 35.584 138.477 35.632C139.053 35.968 139.773 36.688 140.061 37.168C140.109 37.312 140.109 37.408 140.109 37.456V46.192C140.061 46.576 138.957 47.344 138.525 47.584C138.429 47.632 138.333 47.68 138.237 47.68H133.821C133.629 47.68 133.533 47.632 133.533 47.632C132.957 47.296 131.949 46.576 131.949 46.192V37.456ZM169.263 47.536V31.264H154.383L152.415 45.52C152.367 45.712 152.319 45.808 152.271 45.904C151.935 46.48 151.311 47.2 150.927 47.392C150.639 47.536 149.439 47.536 148.911 47.536V55.696H153.519V52H166.527L166.143 55.696H170.703L171.711 47.536H169.263ZM157.071 45.712L158.511 35.728H164.559V47.536H156.159C156.447 47.104 156.975 46.288 157.071 45.712ZM193.424 45.952V37.312C193.424 36.352 193.28 35.296 192.608 34.384C192.224 33.808 191.024 32.608 190.304 32.08C189.344 31.408 188 31.024 186.8 31.024H182.288C181.088 31.024 179.792 31.408 178.832 32.08C178.112 32.608 176.864 33.808 176.48 34.384C175.808 35.296 175.664 36.352 175.664 37.312V45.952C175.664 46.912 175.808 47.968 176.48 48.88C176.864 49.456 178.112 50.704 178.832 51.232C179.792 51.904 181.088 52.24 182.288 52.24H186.8C188 52.24 189.344 51.904 190.304 51.232C191.024 50.704 192.224 49.456 192.608 48.88C193.28 47.968 193.424 46.912 193.424 45.952ZM180.464 37.456C180.464 37.456 180.464 37.264 180.512 37.168C180.848 36.592 181.52 35.968 182.096 35.632C182.192 35.584 182.24 35.584 182.336 35.584H186.752C186.848 35.584 186.896 35.584 186.992 35.632C187.568 35.968 188.288 36.688 188.576 37.168C188.624 37.312 188.624 37.408 188.624 37.456V46.192C188.576 46.576 187.472 47.344 187.04 47.584C186.944 47.632 186.848 47.68 186.752 47.68H182.336C182.144 47.68 182.048 47.632 182.048 47.632C181.472 47.296 180.464 46.576 180.464 46.192V37.456ZM196.802 47.968V52.528H198.962C200.114 52.528 201.41 52.192 202.37 51.52C203.138 50.992 204.386 49.696 204.77 49.168C205.394 48.256 205.634 47.2 205.634 46.144V35.824H213.65V52H218.498V31.264H200.786V46.048C200.786 46.144 200.738 46.288 200.738 46.288C200.402 46.96 199.73 47.584 199.202 47.92C199.202 47.92 199.106 47.968 198.914 47.968H196.802ZM257.924 52L248.036 41.296L257.252 31.264H250.964L243.908 38.992H242.324V31.264H237.524V38.992H235.94L228.884 31.264H222.596L231.812 41.296L221.924 52H228.356L235.988 43.504H237.524V52H242.324V43.504H243.86L251.492 52H257.924ZM274.803 31.264L266.067 43.84V31.264H261.267V52H265.923L274.803 39.232V52H279.603V31.264H274.803ZM301.722 35.824V31.264H284.058V35.824H290.49V52H295.29V35.824H301.722ZM311.208 31.264H306.408V52.24H317.832C319.032 52.24 320.328 51.856 321.288 51.184C322.008 50.656 323.16 49.456 323.544 48.928C324.168 48.064 324.408 47.056 324.408 46V45.136C324.408 44.08 324.168 43.072 323.544 42.208C323.16 41.68 322.008 40.48 321.288 39.952C320.328 39.28 319.032 38.896 317.832 38.896H311.208V31.264ZM311.208 43.408H317.784C317.928 43.408 318.072 43.456 318.12 43.504C318.648 43.84 319.224 44.464 319.56 45.04C319.56 45.04 319.608 45.136 319.608 45.184V45.952C319.608 46 319.56 46.096 319.56 46.096C319.224 46.672 318.6 47.248 318.072 47.584C318.072 47.584 317.88 47.68 317.784 47.68H311.208V43.408Z" fill="#FF00FF"/>
</svg>
